<?xml version="1.0" encoding="utf-8"?>
<!-- Generator: Adobe Illustrator 14.0.0, SVG Export Plug-In . SVG Version: 6.00 Build 43363)  -->
<!DOCTYPE svg PUBLIC "-//W3C//DTD SVG 1.1//EN" "http://www.w3.org/Graphics/SVG/1.1/DTD/svg11.dtd">
<svg version="1.1" xmlns="http://www.w3.org/2000/svg" xmlns:xlink="http://www.w3.org/1999/xlink" x="0px" y="0px"
	 width="215.631px" height="167.333px" viewBox="0 0 215.631 167.333" enable-background="new 0 0 215.631 167.333"
	 xml:space="preserve">
<g id="Layer_3">
	<g id="Layer_3_1_">
		<g>
			<path fill="#C1C1C0" stroke="#000000" d="M65.471,114.875c0,0-4.272-36.469-3.253-53.613C63.236,44.115,75.3,0.719,78.708,8.684
				c3.286,16.638,1.706,46.858,4.857,63.421c3.15,16.563,7.861,22.635,7.861,22.635"/>
			<path d="M78.789,7.736c1.792,9.078,1.853,12.388,2.306,25.128c0,0-10.212,4.436-16.433,12.798
				C66.497,29.562,75.868,0.904,78.789,7.736"/>
		</g>
	</g>
</g>
<g id="Layer_1">
	<path fill="#FBB065" stroke="#000000" d="M117.437,123.126c-2.617-0.351-5.797,2.092-5.797,2.092s3.705,5.408,6.756,5.408
		s4.271-2.269,4.621-3.75C123.365,125.395,120.052,123.475,117.437,123.126z"/>
	<path fill="none" stroke="#000000" d="M141.384,130.324"/>
	<path fill="none" stroke="#000000" d="M133.972,123.945"/>
	<path fill="none" stroke="#000000" d="M137.405,125.466"/>
	<path fill="#C1C1C0" stroke="#000000" d="M157.14,121.16c-3.828-2.41-5.752-3.763-6.928-4.721
		c-8.19-26.29-52.495-32.944-81.495-23.277c-3.099-1.034-20.235,8.321-26.02,10.529c-0.598,0.229,0.818-2.592,0.218-2.351
		c-0.85,0.339-3.72,3.743-4.563,4.107c-1.248,0.537,4.76-6.669,3.562-6.079c-7.699,4.049-24.873,17.808-16.836,28.034
		c11.185,13.33,22.947,1.419,31.428-5.527c38.98,8.021,68.492-7.398,85.376,9.247c22.426,22.104,29.034,30.439,29.034,30.439
		S167.763,134.148,157.14,121.16z"/>
	<line fill="none" stroke="#000000" x1="150.878" y1="121.185" x2="150.212" y2="116.439"/>
	<path fill="#FFFFFF" d="M139.391,127.932c0.258-7.984-0.075-9.257-4.171-14.479c-4.156-4.118-8.764-7.796-21.348-14.325
		c-14.19,0.135-17.155,0-45,0c-5.75,7.199-8.632,20.879-11.418,22.165c37.175,7.584,67.479-6.724,83.266,7.759
		C156.243,143.293,133.545,122.186,139.391,127.932z"/>
	<path fill="#FBB065" stroke="#000000" d="M25.142,127.932c0,0-15.582,9.65-15.146,19.049c9.061-8.523,20.529-14.646,20.529-14.646
		L25.142,127.932z"/>
	<circle cx="30.899" cy="120.342" r="1.667"/>
	<path fill="#FBB065" stroke="#000000" d="M127.399,121.466c-3.396,0.168-7.34,2.479-7.34,2.479s4.771,4.847,8.697,4.847
		c3.93,0,5.948-4.828,6.396-6.735C135.606,120.146,133.804,121.15,127.399,121.466z"/>
	<path fill="none" stroke="#000000" d="M128.866,128.245"/>
	<path fill="none" stroke="#000000" d="M143.972,119.947"/>
	<path fill="none" stroke="#000000" d="M133.54,113.453"/>
	<path fill="#FBB065" stroke="#000000" d="M138.045,119.947"/>
</g>
<g id="Layer_2_1_">
	<g>
		<path fill="#FFFFFF" stroke="#000000" d="M68.543,99.922c0,0,1.337-1.487,1.447-1.629c2.242-2.883,26.558-34.027,41.333-47.194
			c15.5-13.812,65.001-42.556,62.001-33.597c-10.418,16.203-37.5,40.689-48.001,56.742c-9.41,14.387-10.387,22.476-10.488,24
			c-0.012,0.176,0.068,2.053,0.068,2.053"/>
		<path fill="none" stroke="#000000" d="M84.447,95.393c0,0,16-2.613,5.667-5.849c17.209-1.99,7-5.973,7-5.973s17.876-2.488,6-6.222
			c15.209-2.24,2.667-5.973,2.667-5.973"/>
		<path fill="none" stroke="#000000" d="M130.59,51.26c9.668-0.994,4.334-3.483,4.334-3.483s9-1.742,4.334-4.231
			c9.666-1.742,4.666-4.23,4.666-4.23s11-0.747,5.668-3.235c9.332-0.498,6.383-2.986,6.383-2.986"/>
	</g>
</g>
</svg>
