<?xml version="1.0" encoding="utf-8"?>
<!-- Generator: Adobe Illustrator 14.0.0, SVG Export Plug-In . SVG Version: 6.00 Build 43363)  -->
<!DOCTYPE svg PUBLIC "-//W3C//DTD SVG 1.1//EN" "http://www.w3.org/Graphics/SVG/1.1/DTD/svg11.dtd">
<svg version="1.1" xmlns="http://www.w3.org/2000/svg" xmlns:xlink="http://www.w3.org/1999/xlink" x="0px" y="0px"
	 width="215.631px" height="192px" viewBox="0 0 215.631 192" enable-background="new 0 0 215.631 192" xml:space="preserve">
<g id="boat">
	<path fill="#C69C6D" stroke="#000000" d="M1.216,104.648c6.306-9.462,206.307-8.5,214.415,0
		c-0.94,4.625-12.61,86.035-107.207,86.035C13.829,190.686,3.018,110.054,1.216,104.648z"/>
	<path fill="none" stroke="#000000" d="M215.631,104.648c-45.946,18.469-206.757,12.612-214.415,0"/>
	<path fill="none" stroke="#000000" d="M66.5,135.146C32.443,133.777,11,130,7.271,124.469"/>
	<path fill="none" stroke="#000000" d="M83.25,157.677c-31.728,2.073-57.394-3.995-63.455-8.309"/>
	<path fill="none" stroke="#000000" d="M119.333,178.5c-30.833,1.25-58.583,2.5-77.364-6.707"/>
	<path fill="#754C24" stroke="#000000" d="M204.5,104.648c-10.499-3.914-190.25-6.398-197.229,0.897
		C43.5,119,212,109.797,204.5,104.648z"/>
	<path fill="none" stroke="#000000" d="M207.556,131.042c0,0-50.222,9.367-88.222,9.867"/>
	<path fill="none" stroke="#000000" d="M193.185,154.604c0,0-12.435,4.146-33.935,6.146"/>
	<line fill="none" stroke="#000000" x1="29.365" y1="131.777" x2="32.443" y2="154.029"/>
	<path fill="none" stroke="#000000" d="M193.185,133.777"/>
	<path fill="#F9534B" stroke="#000000" d="M190.968,135.146c0,14.594-11.832,26.426-26.426,26.426
		c-14.596,0-26.426-11.832-26.426-26.426c0-14.597,11.83-26.427,26.426-26.427C179.136,108.72,190.968,120.551,190.968,135.146z
		 M163.746,122.729c-6.771,0-10.913,5.648-10.913,12.418c0,6.771,4.143,12.099,10.913,12.099s11.421-5.293,11.421-12.062
		C175.167,128.414,170.517,122.729,163.746,122.729z"/>
	<path fill="#FFFFFF" stroke="#000000" d="M139.8,125.717c0,0,11.102,2.867,13.579,5.325c1.396-2.845,2.308-5.325,2.308-5.325
		c-1.479-5.607-8.523-10.515-8.523-10.515C142.572,118.5,139.8,125.717,139.8,125.717z"/>
	<path fill="#FFFFFF" stroke="#000000" d="M170.261,161.167c0,0-0.697-11.521-2.699-14.281c-4.879,1.365-9.181-0.973-9.181-0.973
		c-3.662,4.457-5.972,10.326-6.46,12.332C159.058,163.251,170.261,161.167,170.261,161.167z"/>
	<path fill="#FFFFFF" stroke="#000000" d="M190.968,135.146c-3.843-2.021-9.91-1.558-15.801,0.035
		c-0.333-0.683,0.525-5.609-3.869-9.479C173.667,119,181.353,115.27,181.765,115C181.765,115,191.562,122.418,190.968,135.146z"/>
	<path fill="#FFFFFF" stroke="#000000" d="M38.679,109.6c0,0,7.496-36.431,9.315-38.479c1.819-2.049,8.496-2.049,8.496-2.049
		l2.339-9.368H66.5l1.49,9.368c2.309,0.207,7.051,0.213,9.667,3c1.833,1.834,9.083,39.534,9.083,39.534H59.49L38.679,109.6z"/>
	<circle fill="#FFFFFF" stroke="#000000" cx="64.148" cy="41.75" r="20.182"/>
	<path fill="#FFFFFF" stroke="#000000" d="M38.344,24.903c16.146,6.836,49.479,10.112,56.312,9.558
		C82.657,17.572,69.585,2.212,69.585,2.212S52.157,18.406,38.344,24.903z"/>
	<path fill="none" stroke="#000000" d="M56.49,69.072c0,0-0.61,3.166,3.778,4c6.847,1.301,7.841-4.173,7.722-4"/>
	<path fill="none" stroke="#000000" d="M46.036,79.209c8.788,6.529,31.336,4.288,34.646,1.159"/>
	<path fill="none" stroke="#000000" d="M43.966,88.239c10.367,7.702,33.803,5.956,38.691,1.333"/>
	<path fill="none" stroke="#000000" d="M41.036,100.209c8.788,6.529,37.621,6.696,44.295,2.105"/>
	<path fill="none" stroke="#000000" d="M77.657,110.572"/>
	<path fill="none" stroke="#000000" d="M38.966,109.239"/>
	<polyline fill="#592B0D" stroke="#000000" points="120.705,31.277 116.853,23.197 118.353,18.072 119.728,20.072 121.603,11.947 
		123.63,16.947 126.103,11.697 127.478,11.697 130.408,9.072 	"/>
	<path fill="#FFFFFF" stroke="#000000" d="M132.603,38.572c0,0,0,22,0,23.25c3-1.25,5.75-6.25,5.75-6.25s3.75,7.375,4.25,10.5
		c1.5-2,5.5-6.125,5.5-6.125s9.25,8.25,11.25,13.5c1.5-2.25,4.703-7.492,4.703-7.492s5.422,2.867,6.172,8.367s1.875-12,1.875-12
		l1.547-16.5L132.603,38.572z"/>
	<polygon fill="#6B3D18" stroke="#000000" points="116.853,112.335 116.853,24.322 120.706,28.322 123.63,13.822 128.017,16.072 
		130.408,9.072 132.603,14.072 132.603,111.609 	"/>
	<polyline fill="#6B3D18" stroke="#000000" points="132.603,30.822 173.649,45.822 171.103,53.322 132.603,38.322 	"/>
	<path fill="#FFFFFF" stroke="#000000" d="M132.603,14.072c0,3.75,0,16.75,0,16.75l41.047,15
		C173.649,45.822,139.853,26.822,132.603,14.072z"/>
</g>
<g id="Layer_2">
	<path fill="#3EE500" stroke="#000000" d="M100.649,111.605c1.667-16.438-3-16.077-3-16.077s-4.333,1.639-6-2.645
		c2.333-11.717,10.667-11.568,14.358-3.384c1.971,4.37,4.801,22.105,4.801,22.105S104.982,111.834,100.649,111.605z"/>
	<ellipse cx="97.982" cy="88.883" rx="1.458" ry="1.563"/>
	<path fill="#9ACC6A" stroke="#000000" d="M109.33,111.759c-1.921-11.419,23.404-18.807,34.074-1.094
		C132.067,112.591,126.308,111.959,109.33,111.759z"/>
	<polygon fill="#BDE583" points="119.333,101.801 116.853,105.476 121.648,106.617 126.315,104.209 124.728,101.801 	"/>
	<polygon fill="#BDE583" points="130.408,105.476 132.603,109.239 138.116,107.357 135.982,104.648 132.603,102.842 	"/>
	<polygon fill="#BDE583" points="116.853,111.605 119.334,108.72 124.728,108.72 126.315,111.572 	"/>
</g>
</svg>
