<?xml version="1.0" encoding="utf-8"?>
<!-- Generator: Adobe Illustrator 14.0.0, SVG Export Plug-In . SVG Version: 6.00 Build 43363)  -->
<!DOCTYPE svg PUBLIC "-//W3C//DTD SVG 1.1//EN" "http://www.w3.org/Graphics/SVG/1.1/DTD/svg11.dtd">
<svg version="1.1" id="boat" xmlns="http://www.w3.org/2000/svg" xmlns:xlink="http://www.w3.org/1999/xlink" x="0px" y="0px"
	 width="215.631px" height="192px" viewBox="0 0 215.631 192" enable-background="new 0 0 215.631 192" xml:space="preserve">
<path fill="#C69C6D" stroke="#000000" d="M1.216,104.648c6.306-9.462,206.306-8.5,214.415,0
	c-0.941,4.625-12.611,86.036-107.207,86.036C13.829,190.685,3.018,110.054,1.216,104.648z"/>
<path fill="none" stroke="#000000" d="M215.631,104.648c-45.946,18.469-206.757,12.613-214.415,0"/>
<path fill="none" stroke="#000000" d="M66.5,135.146C32.443,133.777,11,130,7.271,124.469"/>
<path fill="none" stroke="#000000" d="M83.25,157.677c-31.728,2.073-57.394-3.996-63.455-8.309"/>
<path fill="none" stroke="#000000" d="M119.333,178.5c-30.833,1.25-58.583,2.5-77.364-6.707"/>
<path fill="#754C24" stroke="#000000" d="M204.5,104.648c-10.499-3.914-190.25-6.398-197.229,0.898
	C43.5,119,212,109.797,204.5,104.648z"/>
<path fill="none" stroke="#000000" d="M207.555,131.042c0,0-50.221,9.367-88.221,9.867"/>
<path fill="none" stroke="#000000" d="M193.185,154.604c0,0-12.435,4.146-33.935,6.146"/>
<line fill="none" stroke="#000000" x1="29.365" y1="131.777" x2="32.443" y2="154.029"/>
<path fill="none" stroke="#000000" d="M193.185,133.777"/>
<path fill="#F9534B" stroke="#000000" d="M190.968,135.146c0,14.594-11.832,26.426-26.426,26.426
	c-14.596,0-26.426-11.832-26.426-26.426c0-14.596,11.83-26.426,26.426-26.426C179.136,108.72,190.968,120.551,190.968,135.146z
	 M163.746,122.729c-6.771,0-10.913,5.648-10.913,12.418s4.143,12.098,10.913,12.098c6.77,0,11.421-5.293,11.421-12.062
	S170.516,122.729,163.746,122.729z"/>
<path fill="#FFFFFF" stroke="#000000" d="M139.8,125.717c0,0,11.101,2.867,13.579,5.325c1.395-2.845,2.308-5.325,2.308-5.325
	c-1.48-5.607-8.524-10.515-8.524-10.515C142.572,118.5,139.8,125.717,139.8,125.717z"/>
<path fill="#FFFFFF" stroke="#000000" d="M170.261,161.167c0,0-0.697-11.521-2.7-14.281c-4.878,1.365-9.18-0.973-9.18-0.973
	c-3.662,4.457-5.972,10.326-6.46,12.332C159.058,163.251,170.261,161.167,170.261,161.167z"/>
<path fill="#FFFFFF" stroke="#000000" d="M190.968,135.146c-3.843-2.021-9.911-1.557-15.801,0.035
	c-0.333-0.682,0.525-5.609-3.869-9.479C173.667,119,181.352,115.27,181.765,115C181.765,115,191.561,122.418,190.968,135.146z"/>
<path fill="#FFFFFF" stroke="#000000" d="M38.679,109.599c0,0,7.496-36.43,9.315-38.479s8.496-2.049,8.496-2.049l2.339-9.368H66.5
	l1.49,9.368c2.309,0.207,7.051,0.213,9.667,3c1.833,1.834,9.083,39.535,9.083,39.535H59.49L38.679,109.599z"/>
<circle fill="#FFFFFF" stroke="#000000" cx="64.148" cy="41.75" r="20.182"/>
<path fill="#FFFFFF" stroke="#000000" d="M38.344,24.903c16.146,6.836,49.478,10.112,56.312,9.558
	C82.657,17.572,69.585,2.212,69.585,2.212S52.157,18.406,38.344,24.903z"/>
<path fill="none" stroke="#000000" d="M56.49,69.072c0,0-0.61,3.166,3.778,4c6.847,1.301,7.841-4.173,7.722-4"/>
<path fill="none" stroke="#000000" d="M46.036,79.209c8.788,6.529,31.336,4.288,34.646,1.159"/>
<path fill="none" stroke="#000000" d="M43.966,88.239c10.367,7.702,33.803,5.956,38.691,1.333"/>
<path fill="none" stroke="#000000" d="M41.036,100.209c8.788,6.529,37.621,6.696,44.295,2.106"/>
<path fill="none" stroke="#000000" d="M77.657,110.572"/>
<path fill="none" stroke="#000000" d="M38.966,109.239"/>
<polyline fill="#592B0D" stroke="#000000" points="120.705,31.277 116.852,23.197 118.352,18.072 119.727,20.072 121.602,11.947 
	123.63,16.947 126.102,11.697 127.477,11.697 130.408,9.072 "/>
<path fill="#FFFFFF" stroke="#000000" d="M132.602,38.572c0,0,0,22,0,23.25c3-1.25,5.75-6.25,5.75-6.25s3.75,7.375,4.25,10.5
	c1.5-2,5.5-6.125,5.5-6.125s9.25,8.25,11.25,13.5c1.5-2.25,4.704-7.492,4.704-7.492s5.421,2.867,6.171,8.367s1.875-12,1.875-12
	l1.548-16.5L132.602,38.572z"/>
<polygon fill="#6B3D18" stroke="#000000" points="116.852,112.335 116.852,24.322 120.706,28.322 123.63,13.822 128.017,16.072 
	130.408,9.072 132.602,14.072 132.602,111.609 "/>
<polyline fill="#6B3D18" stroke="#000000" points="132.602,30.822 173.649,45.822 171.102,53.322 132.602,38.322 "/>
<path fill="#FFFFFF" stroke="#000000" d="M132.602,14.072c0,3.75,0,16.75,0,16.75l41.048,15
	C173.649,45.822,139.852,26.822,132.602,14.072z"/>
</svg>
