<?xml version="1.0" encoding="utf-8"?>
<!-- Generator: Adobe Illustrator 14.0.0, SVG Export Plug-In . SVG Version: 6.00 Build 43363)  -->
<!DOCTYPE svg PUBLIC "-//W3C//DTD SVG 1.1//EN" "http://www.w3.org/Graphics/SVG/1.1/DTD/svg11.dtd">
<svg version="1.1" id="Layer_1" xmlns="http://www.w3.org/2000/svg" xmlns:xlink="http://www.w3.org/1999/xlink" x="0px" y="0px"
	 width="260.332px" height="114.334px" viewBox="0 0 260.332 114.334" enable-background="new 0 0 260.332 114.334"
	 xml:space="preserve">
<path fill="#FFFFFF" d="M14.9,42.415c1.718-36.297,48.111-32.647,54.125-19.76c15.464-13.746,39.52-8.591,48.97,5.584
	c7.732-13.316,31.788-38.231,70.448-14.175c34.365-15.464,49.83,23.196,49.83,23.196c43.814,26.634-5.155,62.716-32.647,54.984
	c-6.015,13.746-30.929,31.788-63.575,7.731c-24.055,18.043-58.361,6.299-67.141-9.082c-4.026,10.195-30.799,18.207-39.391,0.491
	C13.182,99.978-12.591,69.907,14.9,42.415z"/>
</svg>
