<?xml version="1.0" encoding="utf-8"?>
<!-- Generator: Adobe Illustrator 14.0.0, SVG Export Plug-In . SVG Version: 6.00 Build 43363)  -->
<!DOCTYPE svg PUBLIC "-//W3C//DTD SVG 1.1//EN" "http://www.w3.org/Graphics/SVG/1.1/DTD/svg11.dtd">
<svg version="1.1" xmlns="http://www.w3.org/2000/svg" xmlns:xlink="http://www.w3.org/1999/xlink" x="0px" y="0px"
	 width="185.343px" height="142.005px" viewBox="0 0 185.343 142.005" enable-background="new 0 0 185.343 142.005"
	 xml:space="preserve">
<g id="ref" display="none">
	<g display="inline">
		
			<image overflow="visible" width="360" height="240" id="_x33_5FGvM_1_" xlink:href="C0987E53.jpg"  transform="matrix(1 0 0 1 -33 -47.9941)">
		</image>
	</g>
</g>
<g id="backFlipper">
	<path fill="#9FA7AA" d="M139.081,32.787c-1.206,2.532-7.11,21.943-27.679,19.787c6.376-5.377,8.931-13.084,9.623-15.915
		C120.952,32.599,140.287,30.256,139.081,32.787z"/>
	<path fill="#8C9193" d="M127.499,41.039c-3.233,3.155-7.042,5.821-12.167,9.302c6.5-6.834,6.149-14.773,6.149-14.773
		s4.685-3.894,14.685-3.83C135.592,32.864,132.597,38.077,127.499,41.039z"/>
</g>
<g id="fin">
	<path fill="#9FA7AA" d="M56.132,30.248C57,28.34,68,20.006,54.667,15.338C59.333,6.006,79,11.337,82,12.005
		C90,12.673,56.667,39.34,56.132,30.248z"/>
	<path fill="#8C9193" d="M57.787,16.729c-5.787-2.723,16.56-4.173,20.046-2.19S58.667,28.007,58.667,28.007
		S66.407,20.453,57.787,16.729z"/>
</g>
<g id="body">
	<path fill="#9FA7AA" d="M56.132,30.248c0,0,34.868-40.909,103.868-27.577c11,6.001,16.667,18,16.667,18s9,5.001,8.667,9.08
		c-0.456-2.042,0.58,4.588-4.667,2.92c-8.554-2.719-40.455-2.369-46,0.001c-3.024,1.293-29.205,14.847-48,23.999
		c-48.993,23.857-51.333,63.333-51.333,63.333s16.333,11.335,11.333,12c-6.352-0.533-28.667-4.332-46.667,10
		c4.808-7.353,5-11.999,26-26C18.667,74.006,56.132,30.248,56.132,30.248z"/>
	<path fill="#8C9193" d="M100.625,49.624c19.372-9.785,25.546-10.57,38.51-17.887c7.865-0.713,14.862-1.065,28.173-0.748
		c-8.33-3.451-6.977-3.816-14.482-4.899c-65.662,5.646-101.59,58.04-101.59,58.04C67.12,66.17,81.253,59.409,100.625,49.624z"/>
	<path fill="#909090" d="M35.333,120.005c0.051,1.572,0.663-5.165,8.295-24.574c-8.132,9.242-12.132,30.741-12.132,30.741
		s-2.333-1-4.5-4.834c-2.833-0.166-17.189,8.684-18.833,12.5c17.5-7,37.669-2.306,39.339-2.226
		C46.163,127.005,38,122.338,35.333,120.005z"/>
</g>
<g id="rightFlipper">
	<path fill="#8C9193" d="M131.333,24.34c-1.502,6.667-6.486,11.226-10.669,13.333c-7.717,3.888-16.606,6.624-21.833,7.333
		c-2.884,0.392-12.5-0.267-12.5-0.267l9.333-9.232c0,0,7.83-6.082,8.667-6.666s1.296-2.278,3.335-4.501
		C108.635,23.284,131.333,24.34,131.333,24.34z"/>
	<path fill="#9FA7AA" d="M130.667,24.865c1.399-1.781-18.591,21.567-40,17c3-4.667,11-9.53,11-9.53s4.333-2.47,5.333-7.47
		S132.859,22.077,130.667,24.865z"/>
</g>
<g id="eye_and_mouth">
	<path fill="#909090" d="M156.25,12.772c1.223,0.653-3.678,2.541-5.42,2.359c-6.685-0.701-5.646-0.676-4.85-2.359
		C146.875,12.224,146.369,7.994,156.25,12.772z"/>
	<ellipse transform="matrix(0.9922 0.1244 -0.1244 0.9922 2.7598 -18.661)" cx="150.829" cy="12.772" rx="2" ry="1.763"/>
	<path fill="#909090" d="M158.625,20.006c4.526,4.279,9.875,6.084,9.875,6.084s11.308,4.588,12.75,4.916s3.22,0.731,3.22,0.731
		s0.155,0.981-3.595,0S162,24.881,158.625,20.756C157.583,19.443,158.625,20.756,158.625,20.006z"/>
</g>
</svg>
