<?xml version="1.0" encoding="utf-8"?>
<!-- Generator: Adobe Illustrator 14.0.0, SVG Export Plug-In . SVG Version: 6.00 Build 43363)  -->
<!DOCTYPE svg PUBLIC "-//W3C//DTD SVG 1.1//EN" "http://www.w3.org/Graphics/SVG/1.1/DTD/svg11.dtd">
<svg version="1.1" id="Layer_1" xmlns="http://www.w3.org/2000/svg" xmlns:xlink="http://www.w3.org/1999/xlink" x="0px" y="0px"
	 width="75.63px" height="65.997px" viewBox="0 0 75.63 65.997" enable-background="new 0 0 75.63 65.997" xml:space="preserve">
<path fill="#A4EEFF" d="M1.765,0.027c19.387-0.845,66.939,18.17,74.017,57.994c0.197,1.261-7.921,5.308-11.926,3.744
	c-1.234,2.745-8.329,6.021-9.78,3.069c-0.832,2.357-8.933-0.077-8.653-2.524c1.434,2.235-10.523,4.496-11.36,3.043
	c0,0-9.35,1.101-10.814-1.061c-2.241,1.914-3.966,0.722-5.832-1.051C14.138,65.318,2.229,59.1,2.869,58.637
	S4.98,41.991-0.155,14.779C0.259,9.642,1.269,6.181,1.765,0.027z"/>
</svg>
