<?xml version="1.0" encoding="utf-8"?>
<!-- Generator: Adobe Illustrator 14.0.0, SVG Export Plug-In . SVG Version: 6.00 Build 43363)  -->
<!DOCTYPE svg PUBLIC "-//W3C//DTD SVG 1.1//EN" "http://www.w3.org/Graphics/SVG/1.1/DTD/svg11.dtd">
<svg version="1.1" id="Layer_1" xmlns="http://www.w3.org/2000/svg" xmlns:xlink="http://www.w3.org/1999/xlink" x="0px" y="0px"
	 width="45.91px" height="43.065px" viewBox="0 0 45.91 43.065" enable-background="new 0 0 45.91 43.065" xml:space="preserve">
<path fill="#A4EEFF" d="M0.476,3.221c-1.408,8.765,0.538,16.244,2.861,20.545c2.061,1.821,4.784,2.894,9.493,1.717
	c7.973,14.386,22.162,17.583,22.162,17.583s-1.286-6.212,1.111-10.694c4.017-3.79,4.605-8.609,4.605-8.609s-0.569-5.238-1.206-8.071
	c-0.638-2.835-1.22-5.416-1.22-5.416s5.127-0.633,3.323-5.404C45.421,2.572,45.91,0,45.91,0S20.842,3.203,4.391,0.676
	C2.714,0.57,1.479-0.521,0.476,3.221z"/>
</svg>
