<?xml version="1.0" encoding="utf-8"?>
<!-- Generator: Adobe Illustrator 14.0.0, SVG Export Plug-In . SVG Version: 6.00 Build 43363)  -->
<!DOCTYPE svg PUBLIC "-//W3C//DTD SVG 1.1//EN" "http://www.w3.org/Graphics/SVG/1.1/DTD/svg11.dtd">
<svg version="1.1" id="Layer_1" xmlns="http://www.w3.org/2000/svg" xmlns:xlink="http://www.w3.org/1999/xlink" x="0px" y="0px"
	 width="75.63px" height="122.042px" viewBox="0 0 75.63 122.042" enable-background="new 0 0 75.63 122.042" xml:space="preserve">
<path fill="#A4EEFF" d="M9.654,0C6.025,0.349,2.747,1.225,0.097,2.814c-2.658,43.138,50.193,77.538,70.59,119.228
	c3.487-8.741-0.251-15.267-0.251-15.267s3.169-3.548,2.135-17.039c5.331-13.833,1.826-19.851,1.826-19.851s3.524-6.788-1.343-15.502
	c2.472-8.274-3.145-12.46-3.145-12.46s4.496-6.039-10.245-17.228c5.744-1.947,12.114-4.673,0.562-7.853
	c1.197-1.892-2.175-5.854-4.987-6.567C49.614,8.85,36.422,7.676,9.654,0z"/>
</svg>
