<?xml version="1.0" encoding="utf-8"?>
<!-- Generator: Adobe Illustrator 14.0.0, SVG Export Plug-In . SVG Version: 6.00 Build 43363)  -->
<!DOCTYPE svg PUBLIC "-//W3C//DTD SVG 1.1//EN" "http://www.w3.org/Graphics/SVG/1.1/DTD/svg11.dtd">
<svg version="1.1" id="Layer_3" xmlns="http://www.w3.org/2000/svg" xmlns:xlink="http://www.w3.org/1999/xlink" x="0px" y="0px"
	 width="111.314px" height="118.605px" viewBox="0 0 111.314 118.605" enable-background="new 0 0 111.314 118.605"
	 xml:space="preserve">
<g>
	<path fill="#FFFFFF" d="M-0.28,112.668c0,0,1.337-1.992,1.444-2.183c2.241-3.86,26.561-45.575,41.333-63.211
		c15.5-18.5,65.001-57,62.001-45c-10.418,21.702-37.5,54.5-48.001,76c-9.411,19.271-10.387,30.104-10.485,32.146
		c-0.015,0.236,0.065,2.75,0.065,2.75"/>
	<path fill="none" stroke="#BBE5EA" d="M15.624,106.601c0,0,16-3.5,5.667-7.833c17.209-2.666,7-8,7-8s17.876-3.333,6-8.333
		c15.209-3,2.667-8,2.667-8"/>
	<path fill="none" stroke="#BBE5EA" d="M61.767,47.491c9.668-1.333,4.334-4.667,4.334-4.667s9-2.333,4.334-5.667
		c9.666-2.333,4.666-5.667,4.666-5.667s11-1,5.668-4.333c9.332-0.667,6.383-4,6.383-4"/>
</g>
</svg>
