<?xml version="1.0" encoding="utf-8"?>
<!-- Generator: Adobe Illustrator 14.0.0, SVG Export Plug-In . SVG Version: 6.00 Build 43363)  -->
<!DOCTYPE svg PUBLIC "-//W3C//DTD SVG 1.1//EN" "http://www.w3.org/Graphics/SVG/1.1/DTD/svg11.dtd">
<svg version="1.1" id="Layer_3" xmlns="http://www.w3.org/2000/svg" xmlns:xlink="http://www.w3.org/1999/xlink" x="0px" y="0px"
	 width="110px" height="120px" viewBox="0.657 -0.698 110 120" enable-background="new 0.657 -0.698 110 120" xml:space="preserve">
<g>
	<path fill="#FFFFFF" d="M0.72,111.97c0,0,1.337-1.992,1.443-2.182c2.241-3.861,26.562-45.576,41.333-63.211
		c15.5-18.5,65.001-57,62.001-45c-10.418,21.702-37.5,54.5-48.001,76c-9.411,19.27-10.387,30.104-10.484,32.145
		c-0.016,0.236,0.064,2.75,0.064,2.75"/>
	<path fill="none" stroke="#BBE5EA" d="M16.624,105.904c0,0,16-3.5,5.667-7.832c17.209-2.666,7-8,7-8s17.876-3.334,6-8.334
		c15.209-3,2.667-8,2.667-8"/>
	<path fill="none" stroke="#BBE5EA" d="M62.767,46.794c9.668-1.333,4.334-4.667,4.334-4.667s9-2.333,4.334-5.667
		c9.666-2.333,4.666-5.667,4.666-5.667s11-1,5.668-4.333c9.332-0.667,6.383-4,6.383-4"/>
</g>
</svg>
