<?xml version="1.0" encoding="utf-8"?>
<!-- Generator: Adobe Illustrator 14.0.0, SVG Export Plug-In . SVG Version: 6.00 Build 43363)  -->
<!DOCTYPE svg PUBLIC "-//W3C//DTD SVG 1.1//EN" "http://www.w3.org/Graphics/SVG/1.1/DTD/svg11.dtd">
<svg version="1.1" id="Layer_1" xmlns="http://www.w3.org/2000/svg" xmlns:xlink="http://www.w3.org/1999/xlink" x="0px" y="0px"
	 width="215.631px" height="51.812px" viewBox="0 78.813 215.631 51.812" enable-background="new 0 78.813 215.631 51.812"
	 xml:space="preserve">
<path fill="#FBB065" d="M125.437,123.125c-2.617-0.351-5.797,2.092-5.797,2.092s3.705,5.408,6.756,5.408s4.271-2.269,4.621-3.75
	C131.365,125.395,128.052,123.475,125.437,123.125z"/>
<path fill="none" stroke="#000000" d="M141.384,130.325"/>
<path fill="none" stroke="#000000" d="M133.972,123.945"/>
<path fill="none" stroke="#000000" d="M137.405,125.465"/>
<path fill="#C1C1C0" d="M159.384,98.295c-4,2.111-6.134,3.102-7.552,3.641c-20.79-8.943-54.115-18.439-83.115-8.771
	c-3.099-1.035-8.41-3.315-14.262-5.346c-0.605-0.209,2.294-1.459,1.679-1.658c-0.869-0.287-5.256,0.477-6.136,0.213
	c-1.301-0.393,7.932-2.051,6.636-2.367c-8.5-1.848-30.5-2.348-30.917,10.652c0,17.4,16.667,15.838,27.628,15.969
	c24.705,31.199,84.181,12.166,107.039,5.865c30.356-8.369,40.879-9.926,40.879-9.926S175.944,95.59,159.384,98.295z"/>
<line fill="none" stroke="#A09F9F" x1="156.274" y1="103.73" x2="151.832" y2="101.936"/>
<path fill="#FFFFFF" d="M189.551,109.825c-18.312,2.002-18.95,2.694-41.667,0.998c-14.145-1.273-21.428-4.166-34.012-10.695
	c-14.19,0.135-17.155,0-45,0c-5.75,7.199-11.465,12.465-14.425,11.66c23.603,29.705,83.126,12.104,103.562,5.674
	C178.104,111.139,181.651,112.014,189.551,109.825z"/>
<path fill="#FBB065" d="M25.427,95.104c0,0-18.139-2.623-23.847,4.855c12.419-0.705,25.14,1.977,25.14,1.977L25.427,95.104z"/>
<circle cx="34.716" cy="92.99" r="1.667"/>
<path fill="#FBB065" d="M134.979,121.465c-3.396,0.168-7.34,2.479-7.34,2.479s4.771,4.847,8.695,4.847
	c3.932,0,5.948-4.828,6.396-6.734C143.187,120.146,141.384,121.15,134.979,121.465z"/>
<path fill="none" stroke="#000000" d="M151.384,126.325"/>
<path fill="none" stroke="#000000" d="M143.972,119.948"/>
<path fill="none" stroke="#000000" d="M147.405,121.465"/>
<path fill="#FBB065" stroke="#000000" d="M138.045,119.948"/>
</svg>
