<?xml version="1.0" encoding="utf-8"?>
<!-- Generator: Adobe Illustrator 14.0.0, SVG Export Plug-In . SVG Version: 6.00 Build 43363)  -->
<!DOCTYPE svg PUBLIC "-//W3C//DTD SVG 1.1//EN" "http://www.w3.org/Graphics/SVG/1.1/DTD/svg11.dtd">
<svg version="1.1" id="Layer_1" xmlns="http://www.w3.org/2000/svg" xmlns:xlink="http://www.w3.org/1999/xlink" x="0px" y="0px"
	 width="46px" height="29.667px" viewBox="0 0 46 29.667" enable-background="new 0 0 46 29.667" xml:space="preserve">
<path fill="#FFFFFF" stroke="#000000" d="M39.543,0.833c-8.25,0.417-25.25,13.75-25.25,13.75s-6.666-4.917-8-4.25s2,5.5,2,5.5
	S2.252,15.5,1.815,17.417c-0.438,1.916,4.229,1.916,4.229,1.916s-5.832,1.834-5.5,3.5c0.333,1.666,6.5,0,6.5,0s-4.916,2.25-4,3.75
	s7.25-2.25,7.25-2.25s-3.998,3.648-2.25,4.408c1.75,0.758,6.75-3.408,6.75-3.408S28.612,10.055,37.661,8.611
	S47.795,0.417,39.543,0.833z"/>
</svg>
