<?xml version="1.0" encoding="utf-8"?>
<!-- Generator: Adobe Illustrator 14.0.0, SVG Export Plug-In . SVG Version: 6.00 Build 43363)  -->
<!DOCTYPE svg PUBLIC "-//W3C//DTD SVG 1.1//EN" "http://www.w3.org/Graphics/SVG/1.1/DTD/svg11.dtd">
<svg version="1.1" id="Layer_1" xmlns="http://www.w3.org/2000/svg" xmlns:xlink="http://www.w3.org/1999/xlink" x="0px" y="0px"
	 width="25.667px" height="46.85px" viewBox="20.333 -0.832 25.667 46.85" enable-background="new 20.333 -0.832 25.667 46.85"
	 xml:space="preserve">
<path fill="#FFFFFF" stroke="#000000" d="M43.135,9.442c-5.742,7.142-5.74,27.742-5.74,27.742s-0.914,6.444-2.72,7.057
	c-1.807,0.607-1.288-4.779-1.288-4.779s-2.183,7.03-3.867,6.531c-1.686-0.498,0.449-5.463,0.449-5.463s-3.455,5.371-4.819,4.36
	c-1.364-1.013,1.73-6.285,1.73-6.285s-3.46,3.13-4.421,1.415c-0.962-1.717,3.742-5.521,3.742-5.521s-5.715-1.349-5.174-2.737
	c0.543-1.391,8.784-2.216,8.784-2.216s3.662-21.291,9.501-27.136C45.152-3.433,48.876,2.301,43.135,9.442z"/>
</svg>
