<?xml version="1.0" encoding="utf-8"?>
<!-- Generator: Adobe Illustrator 14.0.0, SVG Export Plug-In . SVG Version: 6.00 Build 43363)  -->
<!DOCTYPE svg PUBLIC "-//W3C//DTD SVG 1.1//EN" "http://www.w3.org/Graphics/SVG/1.1/DTD/svg11.dtd">
<svg version="1.1" id="Layer_1" xmlns="http://www.w3.org/2000/svg" xmlns:xlink="http://www.w3.org/1999/xlink" x="0px" y="0px"
	 width="26.333px" height="46.685px" viewBox="-0.5 -0.667 26.333 46.685" enable-background="new -0.5 -0.667 26.333 46.685"
	 xml:space="preserve">
<path fill="#FFFFFF" stroke="#000000" d="M6.688,2.411c5.839,5.845,9.501,27.136,9.501,27.136s8.241,0.825,8.784,2.216
	c0.541,1.389-5.173,2.737-5.173,2.737s4.704,3.804,3.742,5.521c-0.96,1.715-4.421-1.415-4.421-1.415s3.095,5.272,1.73,6.285
	c-1.365,1.011-4.82-4.36-4.82-4.36s2.136,4.965,0.45,5.463c-1.685,0.499-3.867-6.531-3.867-6.531s0.518,5.387-1.289,4.779
	c-1.806-0.612-2.72-7.057-2.72-7.057s0.002-20.601-5.74-27.742C-2.876,2.301,0.848-3.433,6.688,2.411z"/>
</svg>
