<?xml version="1.0" encoding="utf-8"?>
<!-- Generator: Adobe Illustrator 14.0.0, SVG Export Plug-In . SVG Version: 6.00 Build 43363)  -->
<!DOCTYPE svg PUBLIC "-//W3C//DTD SVG 1.1//EN" "http://www.w3.org/Graphics/SVG/1.1/DTD/svg11.dtd">
<svg version="1.1" id="Nessie" xmlns="http://www.w3.org/2000/svg" xmlns:xlink="http://www.w3.org/1999/xlink" x="0px" y="0px"
	 width="160.815px" height="192px" viewBox="-1 0 160.815 192" enable-background="new -1 0 160.815 192" xml:space="preserve">
<path fill="#AEFFFF" stroke="#000000" d="M133.325,160.987c10.484-0.625,15.037,9.188,15.037,9.188s-5.051-11.875,7.82-12.801
	c-13.393-8.769-1.264-14.833-1.264-14.833s-17.18-5.81-4.072-14.794c-16.592,5.098-8.322-10.357-8.322-10.357
	s-16.613,8.014-9.197-7.963c-13.887,10.265-11.424-8.152-11.424-8.152s-16.331,4.671-9.174-10.878
	c-8.154,0.878-8.155-9.669-8.155-9.669s-10.643,1.115-12.8-7.82c-6.542,3.034-15.351-3.934-15.351-3.934"/>
<path fill="#0CA300" stroke="#000000" d="M116.378,186.08c4.746-3.585,12.371-9.097,17.543-26.781
	c10.426-38.162-85.773-115.686-85.773-115.686s9.312-27.709,10.496-36.36c1.185-8.651-9.269-9.764-23.821-2.249
	S4.158,54.236,4.158,54.236s-10.331,37.047-1.75,36.431c8.581-0.617,11.684-13.37,34.675-14.557
	c71.299,27.156,69.1,66.241,69.1,66.241s-17.064,21.215-15.901,36.574C91.444,194.284,111.632,189.665,116.378,186.08z"/>
<path fill="#AEFFFF" stroke="#000000" d="M121.481,153.751c8.818,1.872,25.309-4.979,25.309-4.979s-16.682-1.468-5.471-9.268
	c-13.771,6.235-10.305-6.295-10.305-6.295s-11.537,6.559-13.666-2.425c-3.857-7.11-1.414,19.578-1.414,19.578"/>
<circle cx="121.403" cy="165.127" r="2.136"/>
</svg>
