<?xml version="1.0" encoding="utf-8"?>
<!-- Generator: Adobe Illustrator 14.0.0, SVG Export Plug-In . SVG Version: 6.00 Build 43363)  -->
<!DOCTYPE svg PUBLIC "-//W3C//DTD SVG 1.1//EN" "http://www.w3.org/Graphics/SVG/1.1/DTD/svg11.dtd">
<svg version="1.1" id="Nessie" xmlns="http://www.w3.org/2000/svg" xmlns:xlink="http://www.w3.org/1999/xlink" x="0px" y="0px"
	 width="160.814px" height="183.566px" viewBox="0 0 160.814 183.566" enable-background="new 0 0 160.814 183.566"
	 xml:space="preserve">
<path fill="#AEFFFF" d="M108.915,14.984c-5.354-9.035,1.288-17.574,1.288-17.574s-8.247,9.925-14.961-1.095
	c-1.667,15.921-12.609,7.912-12.609,7.912s2.696,17.935-11.291,10.391c12.126,12.419-5.398,12.139-5.398,12.139
	s14.728,11.104-2.872,11.822c15.482,7.65-2.02,13.889-2.02,13.889s11.628,12.384-5.474,13.136
	c4.512,6.848-4.865,11.676-4.865,11.676s5.862,8.953-1.094,14.96c5.691,4.429,3.527,15.449,3.527,15.449"/>
<linearGradient id="SVGID_1_" gradientUnits="userSpaceOnUse" x1="40.4314" y1="191.0476" x2="102.1162" y2="56.4125">
	<stop  offset="0" style="stop-color:#FFFFFF"/>
	<stop  offset="1" style="stop-color:#8BFF9A"/>
</linearGradient>
<path fill="url(#SVGID_1_)" d="M138.983,18.568c-5.359-2.579-13.751-6.836-31.841-3.341C68.44,23.422,43.537,144.435,43.537,144.435
	s-28.898,4.4-37.133,7.308c-8.234,2.905-4.439,12.71,8.902,22.209c13.342,9.5,57.808,4.734,57.808,4.734s37.668-7.771,33.193-15.117
	c-4.477-7.347-17.235-4.271-28.812-24.168c-8.485-75.822,27.273-91.755,27.273-91.755s26.672,5.463,39.796-2.601
	C157.689,36.984,144.342,21.147,138.983,18.568z"/>
<path fill="#AEFFFF" stroke="#A2E3F9" d="M107.903,28.827C105.531,20.13,91.892,8.603,91.892,8.603s6.331,15.504-5.735,9.105
	c11.846,9.391-0.882,12.043-0.882,12.043s11.112,7.256,4.099,13.261c-4.557,6.684,18.054-7.702,18.054-7.702"/>
<circle cx="118.053" cy="23.69" r="2.136"/>
<linearGradient id="SVGID_2_" gradientUnits="userSpaceOnUse" x1="-21.7141" y1="125.6423" x2="-12.3806" y2="125.6423">
	<stop  offset="0" style="stop-color:#FFFFFF"/>
	<stop  offset="1" style="stop-color:#82E077"/>
</linearGradient>
<rect x="-21.714" y="121.283" fill="url(#SVGID_2_)" width="9.333" height="8.719"/>
</svg>
