<?xml version="1.0" encoding="utf-8"?>
<!-- Generator: Adobe Illustrator 14.0.0, SVG Export Plug-In . SVG Version: 6.00 Build 43363)  -->
<!DOCTYPE svg PUBLIC "-//W3C//DTD SVG 1.1//EN" "http://www.w3.org/Graphics/SVG/1.1/DTD/svg11.dtd">
<svg version="1.1" id="Layer_1" xmlns="http://www.w3.org/2000/svg" xmlns:xlink="http://www.w3.org/1999/xlink" x="0px" y="0px"
	 width="69.033px" height="108.236px" viewBox="0 0 69.033 108.236" enable-background="new 0 0 69.033 108.236"
	 xml:space="preserve">
<path fill="#DDDDED" d="M45.564,91.309c0.698-0.514,12.338-6.373,12.338-6.373s-17.084-1.389-16.054-2.069
	c5.122-3.38,13.804-7.181,13.804-7.181s-19.742-1.115-19.038-1.602c2.463-1.707,14.106-8.303,14.106-8.303L37.18,63.13l22.23-8.656
	l-21.534-9.875l24.785-2.351l-23.106-7.321l27.439-7.592L42.152,24.65l24.842-6.964l-20.696-3.082l24.258-3.498L47.238,6.339
	C47.238,6.339,15.707,58.245,45.564,91.309z"/>
<path fill="#4CF21D" d="M50.809,1.35c-21.99,48.792-18.919,95.285,17.686,100.413c7.425,9.293-64.338,12.812-67.862-19.246
	C-3.92,41.103,16.595,4.871,46.449,1.589C47.909,1.429,52.2-1.747,50.809,1.35z"/>
<circle fill="#F4F1B5" cx="19.53" cy="77.328" r="11.546"/>
<circle cx="21.723" cy="74.084" r="4.386"/>
</svg>
