<?xml version="1.0" encoding="utf-8"?>
<!-- Generator: Adobe Illustrator 14.0.0, SVG Export Plug-In . SVG Version: 6.00 Build 43363)  -->
<!DOCTYPE svg PUBLIC "-//W3C//DTD SVG 1.1//EN" "http://www.w3.org/Graphics/SVG/1.1/DTD/svg11.dtd">
<svg version="1.1" id="Layer_1" xmlns="http://www.w3.org/2000/svg" xmlns:xlink="http://www.w3.org/1999/xlink" x="0px" y="0px"
	 width="126.988px" height="134.195px" viewBox="0 0 126.988 134.195" enable-background="new 0 0 126.988 134.195"
	 xml:space="preserve">
<path fill="#FFF200" d="M92.254,86.889c-2.843,3.655,51.702,57.777,29.334,45.498c-27.191-14.913-63.596-15.352-95.175,0
	c-14.474,7.896,22.368-26.756,29.411-46.542C67.777,80.558,80.053,78.943,92.254,86.889z"/>
<path fill="#FFEC00" d="M116.999,61.277c1.688,9.207,0.154,18.91-3.658,25.724c-7.16-9.18-14.209-6.245-14.209-6.245"/>
<path fill="#FFEC00" d="M34.401,61.595C15.36,52.554,4.341,61.998,0,64.248c4.1-26.71,14.909-37.75,22.659-63.557"/>
<path fill="#F4691C" d="M74.39,32.469c15.246-1.504,16.75-4.202,43.642-31.777c19.451,31.749,0.153,76.484-25.672,86.251
	c-4.332,1.639,51.702,57.778,29.334,45.498c-2.054-1.126-1.862-1.103-4.015-2.062C105.15,110.435,89.643,95.045,75.03,95.248
	c-13.851,0.191-29.632,19.576-42.673,34.628c-1.966,0.821-3.906,1.626-5.838,2.564c-14.476,7.896,22.368-26.755,29.411-46.542
	C35.407,75.108,21.14,28.488,21.817-1C45.994,28.012,61.14,31.469,74.39,32.469z"/>
</svg>
