<?xml version="1.0" encoding="utf-8"?>
<!-- Generator: Adobe Illustrator 14.0.0, SVG Export Plug-In . SVG Version: 6.00 Build 43363)  -->
<!DOCTYPE svg PUBLIC "-//W3C//DTD SVG 1.1//EN" "http://www.w3.org/Graphics/SVG/1.1/DTD/svg11.dtd">
<svg version="1.1" id="Layer_1" xmlns="http://www.w3.org/2000/svg" xmlns:xlink="http://www.w3.org/1999/xlink" x="0px" y="0px"
	 width="126.988px" height="134.195px" viewBox="0 0 126.988 134.195" enable-background="new 0 0 126.988 134.195"
	 xml:space="preserve">
<path fill="#FFF200" d="M92.254,86.889c-2.843,3.656,51.702,57.778,29.334,45.498c-27.192-14.913-63.596-15.351-95.175,0
	c-14.474,7.896,22.368-26.755,29.411-46.542C67.777,80.558,80.053,78.943,92.254,86.889z"/>
<path fill="#FFEC00" d="M116.999,61.277c1.688,9.207,0.154,18.91-3.658,25.724c-7.161-9.18-14.209-6.245-14.209-6.245"/>
<path fill="#FFEC00" d="M34.401,61.595C15.36,52.554,4.341,61.998,0,64.248c4.099-26.71,14.909-37.75,22.659-63.557"/>
<path fill="#F4691C" d="M69.994,41.598c14.5-0.25,21.146-13.331,48.038-40.906c19.451,31.749,0.153,76.485-25.672,86.251
	c-4.332,1.639,51.702,57.778,29.334,45.498c-2.054-1.126-1.862-1.102-4.015-2.062C105.15,110.435,89.643,95.045,75.03,95.248
	c-13.851,0.191-29.632,19.576-42.673,34.628c-1.966,0.821-3.906,1.626-5.838,2.564c-14.475,7.896,22.368-26.755,29.411-46.542
	c-20.523-10.79-35.79-41.074-35.113-70.562C44.994,44.348,56.744,40.598,69.994,41.598z"/>
</svg>
