<?xml version="1.0" encoding="utf-8"?>
<!-- Generator: Adobe Illustrator 14.0.0, SVG Export Plug-In . SVG Version: 6.00 Build 43363)  -->
<!DOCTYPE svg PUBLIC "-//W3C//DTD SVG 1.1//EN" "http://www.w3.org/Graphics/SVG/1.1/DTD/svg11.dtd">
<svg version="1.1" id="Layer_1" xmlns="http://www.w3.org/2000/svg" xmlns:xlink="http://www.w3.org/1999/xlink" x="0px" y="0px"
	 width="55.657px" height="92.569px" viewBox="0 0 55.657 92.569" enable-background="new 0 0 55.657 92.569" xml:space="preserve">
<path fill="#DDDDED" d="M23.891,3.06L14.94,0l8.333,9.21L9.896,13.597l12.922,7.649L6.682,28.188l18.113,4.245L6.182,39.854
	l13.75,6.43L0,50.201c0,0,18.376,8.429,20.551,8.684c1.702,0.2-17.876,2.554-17.876,2.554l15.637,3.75L3.803,69.375
	c0,0,2.879,0,7.629,3.562C34.932,57.83,23.891,3.06,23.891,3.06z"/>
<path fill="#1D1DF2" d="M23.621,0c33.021,17.699,32.114,70.752,32.014,73.831c-6.895,17.423-64.59,30.426-54.44,2.533
	C26.682,68.43,26.508,34.707,23.621,0z"/>
</svg>
