<?xml version="1.0" encoding="utf-8"?>
<!-- Generator: Adobe Illustrator 14.0.0, SVG Export Plug-In . SVG Version: 6.00 Build 43363)  -->
<!DOCTYPE svg PUBLIC "-//W3C//DTD SVG 1.1//EN" "http://www.w3.org/Graphics/SVG/1.1/DTD/svg11.dtd">
<svg version="1.1" id="Layer_1" xmlns="http://www.w3.org/2000/svg" xmlns:xlink="http://www.w3.org/1999/xlink" x="0px" y="0px"
	 width="374.125px" height="425.292px" viewBox="0 0 374.125 425.292" enable-background="new 0 0 374.125 425.292"
	 xml:space="preserve">
<g id="leftfin">
	<path fill="#BAC6CC" d="M304.504,181.666c56.604,37.182,72.445,89.129,69.225,95.959c-3.221,6.828-39.229-28.119-95.293-17.682
		C281.842,247.428,294.534,244.134,304.504,181.666z"/>
	<path fill="#9FA7AA" d="M305.312,205.16c18.074,60.363,48.43,56.301,54.76,68.605c-34.297-18.74-62.971-15.752-62.971-15.752
		S295.242,216.63,305.312,205.16z"/>
</g>
<g id="body">
	<path fill="#BAC6CC" d="M292.82,420.799c-43.573-0.367-176.801,11.927-176.833-2.667C103.562,393.046,96.32,332.134,92.32,264.8
		s39.6-170.994,59.031-202.209C160.82,41.8,186.991,32.046,222.32,10.3c9.931-5.632,21-12.5,35-9.621
		c13.861,2.851,18.719,10.59,25.459,20.991c11.287,17.41,24.095,31.644,24.041,55.13c-1.385,48.435,7.5,87.5-7,196.5
		C297.576,298.132,297.576,392.132,292.82,420.799z"/>
</g>
<g id="eye_and_gills">
	<path fill="#9FA7AA" d="M133.654,109.667c3.667,17.333,25,19.667,25,19.667S141.654,119.5,133.654,109.667z"/>
	<path fill="#9FA7AA" d="M126.447,127.142c2.658,12.563,18.121,14.255,18.121,14.255S132.246,134.269,126.447,127.142"/>
	<path fill="#9FA7AA" d="M128.29,118c3.033,14.339,20.681,16.269,20.681,16.269S134.908,126.135,128.29,118"/>
	<path fill="#9FA7AA" d="M165.188,70.834c-7.826,1.195-3.667-24.166,16.5-24.166C175.956,55.001,175.696,69.196,165.188,70.834z"/>
	<ellipse transform="matrix(0.6719 -0.7407 0.7407 0.6719 14.1632 145.6828)" cx="171.501" cy="56.857" rx="5.251" ry="3.693"/>
</g>
<g id="rightfin">
	<path fill="#BAC6CC" d="M120.735,155.991C41.861,168.133-1.754,216.785-1.903,225.84s55.882-10.974,109.499,28.49
		C110.499,238.989,98.845,229.042,120.735,155.991z"/>
	<path fill="#9FA7AA" d="M124.543,183.161c-2.46,17.668-10.974,58.832-26.127,68c-39.847-31.834-93.346-22.64-93.346-22.64
		s54.346-4.692,79.346-5.359C107.082,224.091,124.543,183.161,124.543,183.161z"/>
</g>
<g id="mouth">
	<path fill="#9FA7AA" d="M167.783,144.043c7.87-20.901,35.318-114.612,92.818-107.291c47.648,6.067,36,122.929,36,122.929
		s2.354-116.305-43-119.75C242.993,39.707,206.352,44.681,167.783,144.043z"/>
	<path fill="#AA2D2D" d="M165.32,150c17-74,64.5-112.275,88-108.75c31,7.525,41,19.75,43,119.75
		C287.82,138.5,208.82,118.5,165.32,150z"/>
	<path fill="#FFFFFF" d="M251.807,39.968C229.355,37.837,187.32,79,175.37,117.816c6.95,0,16.95,0,16.95,0l-8.476-18.245
		l16.046,1.44l-4.453-20.284h15.883l-2.75-15.972l16.75,6.744V50.411l16.5,6.089l5-15.474l8,18.474l11.943-13.876V67.5l16.619-6.062
		L277.32,83.5l13.146-0.124l-9.146,17.637l12.287,4.91L280.82,120c0,0,9.867,3.173,14.184,4.461
		C294.07,114.5,297.82,43.5,251.807,39.968z"/>
	<path fill="#FFFFFF" d="M171.587,145.948c3.276-6.122,7.732-14.448,7.732-14.448l8.899,7.224l7.601-14.263l7.531,10.744L211.32,118
		l10,13.974L235.254,120l4.064,11.974l15-7.513V135.5l16-7.5v13.573l13-9.599L286.416,150l6.404-8.427v13.93
		C274.32,136.751,217.045,127.421,171.587,145.948z"/>
</g>
</svg>
