<?xml version="1.0" encoding="utf-8"?>
<!-- Generator: Adobe Illustrator 14.0.0, SVG Export Plug-In . SVG Version: 6.00 Build 43363)  -->
<!DOCTYPE svg PUBLIC "-//W3C//DTD SVG 1.1//EN" "http://www.w3.org/Graphics/SVG/1.1/DTD/svg11.dtd">
<svg version="1.1" id="Layer_1" xmlns="http://www.w3.org/2000/svg" xmlns:xlink="http://www.w3.org/1999/xlink" x="0px" y="0px"
	 width="200px" height="200px" viewBox="0 0 200 200" enable-background="new 0 0 200 200" xml:space="preserve">
<path fill="#ACD1F9" d="M200,9.614 M-0.167,9.502 M149.958,15.062c12.122,0,12.121,19.238,25.021,19.238S189.881,15.174,200,15.174
	V200H-0.167V14.729c12.122,0,11.897,19.571,25.021,19.571c13.123,0,12.9-19.238,25.021-19.238 M49.875,15.062
	c12.121,0,11.897,19.238,25.021,19.238c13.124,0,12.9-19.238,25.021-19.238 M99.917,15.062c12.122,0,13.009,19.238,25.021,19.238
	s12.899-19.238,25.021-19.238"/>
</svg>
