<?xml version="1.0" encoding="utf-8"?>
<!-- Generator: Adobe Illustrator 14.0.0, SVG Export Plug-In . SVG Version: 6.00 Build 43363)  -->
<!DOCTYPE svg PUBLIC "-//W3C//DTD SVG 1.1//EN" "http://www.w3.org/Graphics/SVG/1.1/DTD/svg11.dtd">
<svg version="1.1" id="Layer_1" xmlns="http://www.w3.org/2000/svg" xmlns:xlink="http://www.w3.org/1999/xlink" x="0px" y="0px"
	 width="400px" height="54.489px" viewBox="-200 15.511 400 54.489" enable-background="new -200 15.511 400 54.489"
	 xml:space="preserve">
<path fill="none" stroke="#000000" d="M200,35.5"/>
<path fill="none" stroke="#000000" d="M0,35.403"/>
<path fill="none" stroke="#000000" d="M200,38.169"/>
<path fill="none" stroke="#000000" d="M0,38.057"/>
<path fill="none" stroke="#000000" d="M91,73.5"/>
<path fill="none" stroke="#000000" d="M200,26.565"/>
<path fill="none" stroke="#000000" d="M0,26.676"/>
<path fill="#A9E0FF" d="M200,31.017c-10.111,0-24.999-15.505-24.999-15.505S162.111,31.138,150,31.138s-24.999-15.627-24.999-15.627
	S112.111,31.138,100,31.138c-12.11,0-25-15.627-25-15.627S62.111,31.138,50,31.138c-12.11,0-25-15.627-25-15.627
	s-12.888,15.99-25,15.99V70h200V31.017z M-200,70H0V31.501c-12.112,0-25-15.99-25-15.99s-12.89,15.627-25,15.627
	c-12.111,0-25-15.627-25-15.627s-12.89,15.627-25,15.627c-12.111,0-25.001-15.627-25.001-15.627S-137.889,31.138-150,31.138
	s-25.001-15.626-25.001-15.626S-189.889,31.017-200,31.017V70z"/>
</svg>
