<?xml version="1.0" encoding="utf-8"?>
<!-- Generator: Adobe Illustrator 14.0.0, SVG Export Plug-In . SVG Version: 6.00 Build 43363)  -->
<!DOCTYPE svg PUBLIC "-//W3C//DTD SVG 1.1//EN" "http://www.w3.org/Graphics/SVG/1.1/DTD/svg11.dtd">
<svg version="1.1" id="Layer_1" xmlns="http://www.w3.org/2000/svg" xmlns:xlink="http://www.w3.org/1999/xlink" x="0px" y="0px"
	 width="200px" height="200px" viewBox="0 0 200 200" enable-background="new 0 0 200 200" xml:space="preserve">
<path fill="#62AAF9" d="M200,35.5 M0,35.403 M200,38.169 M0,38.057 M91,73.5 M200,26.565 M0,26.676 M50,37.058
	c-12.111,0-11.888,9.778-25,9.778c-13.113,0-12.888-10.111-25-10.111V200h200V37.17c-10.111,0-12.109,9.666-25,9.666
	s-12.89-9.778-25-9.778 M100,37.058c-12.111,0-11.888,9.778-25,9.778s-12.889-9.778-25-9.778 M150,37.058
	c-12.111,0-12.999,9.778-25,9.778c-12.002,0-12.89-9.778-25-9.778"/>
</svg>
