<?xml version="1.0" encoding="utf-8"?>
<!-- Generator: Adobe Illustrator 14.0.0, SVG Export Plug-In . SVG Version: 6.00 Build 43363)  -->
<!DOCTYPE svg PUBLIC "-//W3C//DTD SVG 1.1//EN" "http://www.w3.org/Graphics/SVG/1.1/DTD/svg11.dtd">
<svg version="1.1" id="Layer_1" xmlns="http://www.w3.org/2000/svg" xmlns:xlink="http://www.w3.org/1999/xlink" x="0px" y="0px"
	 width="400px" height="54.775px" viewBox="-200 36.725 400 54.775" enable-background="new -200 36.725 400 54.775"
	 xml:space="preserve">
<path fill="#62AAF9" d="M50,37.058c-12.111,0-11.888,9.778-25,9.778c-13.113,0-12.888-10.111-25-10.111V91.5h200V37.17
	c-10.111,0-12.109,9.666-25,9.666s-12.891-9.778-25-9.778 M100,37.058c-12.111,0-11.888,9.778-25,9.778s-12.889-9.778-25-9.778
	 M150,37.058c-12.111,0-12.999,9.778-25,9.778c-12.002,0-12.891-9.778-25-9.778 M-150,37.058c-12.109,0-12.109,9.778-25,9.778
	s-14.889-9.666-25-9.666v53.997H0V36.725c-12.112,0-11.887,10.111-25,10.111c-13.112,0-12.889-9.778-25-9.778 M-50,37.058
	c-12.111,0-11.888,9.778-25,9.778s-12.889-9.778-25-9.778 M-100,37.058c-12.109,0-12.998,9.778-25,9.778
	c-12.001,0-12.889-9.778-25-9.778"/>
</svg>
