<?xml version="1.0" encoding="utf-8"?>
<!-- Generator: Adobe Illustrator 14.0.0, SVG Export Plug-In . SVG Version: 6.00 Build 43363)  -->
<!DOCTYPE svg PUBLIC "-//W3C//DTD SVG 1.1//EN" "http://www.w3.org/Graphics/SVG/1.1/DTD/svg11.dtd">
<svg version="1.1" id="Layer_1" xmlns="http://www.w3.org/2000/svg" xmlns:xlink="http://www.w3.org/1999/xlink" x="0px" y="0px"
	 width="200px" height="200px" viewBox="0 0 200 200" enable-background="new 0 0 200 200" xml:space="preserve">
<path fill="none" stroke="#000000" d="M200,35.5"/>
<path fill="none" stroke="#000000" d="M0,35.403"/>
<path fill="none" stroke="#000000" d="M200,38.169"/>
<path fill="none" stroke="#000000" d="M0,38.057"/>
<path fill="#84A8F7" d="M150,23.724c12.111,0,25.001,23.777,25.001,23.777S189.889,23.835,200,23.835V200H0V23.391
	c12.111,0,25,24.11,25,24.11s12.889-23.777,25-23.777 M50,23.724c12.111,0,25,23.777,25,23.777s12.889-23.777,25-23.777 M100,23.724
	c12.11,0,25,23.777,25,23.777s12.889-23.777,25-23.777"/>
<path fill="none" stroke="#000000" d="M91,73.5"/>
</svg>
