<?xml version="1.0" encoding="utf-8"?>
<!-- Generator: Adobe Illustrator 14.0.0, SVG Export Plug-In . SVG Version: 6.00 Build 43363)  -->
<!DOCTYPE svg PUBLIC "-//W3C//DTD SVG 1.1//EN" "http://www.w3.org/Graphics/SVG/1.1/DTD/svg11.dtd">
<svg version="1.1" id="Layer_1" xmlns="http://www.w3.org/2000/svg" xmlns:xlink="http://www.w3.org/1999/xlink" x="0px" y="0px"
	 width="400px" height="88.269px" viewBox="-200 17.231 400 88.269" enable-background="new -200 17.231 400 88.269"
	 xml:space="preserve">
<path fill="none" stroke="#000000" d="M200,35.5"/>
<path fill="none" stroke="#000000" d="M0,35.403"/>
<path fill="none" stroke="#000000" d="M200,48.162"/>
<path fill="none" stroke="#000000" d="M0,48.05"/>
<path fill="none" stroke="#000000" d="M91,73.5"/>
<path fill="none" stroke="#000000" d="M200,26.565"/>
<path fill="none" stroke="#000000" d="M0,26.676"/>
<path fill="#5CA6EA" d="M150,51.003c12.111,0,25.001-33.771,25.001-33.771S189.889,50.89,200,50.89v54.61H0V51.335
	c12.111,0,25-34.104,25-34.104s12.89,33.772,25,33.772 M100,51.003c-12.112,0-25-33.771-25-33.771S62.111,51.003,50,51.003
	 M100,51.003c12.111,0,25-33.771,25-33.771s12.889,33.771,25,33.771 M-50,51.003c12.11,0,25-33.772,25-33.772
	s12.889,34.104,25,34.104V105.5h-200V50.89c10.111,0,24.999-33.658,24.999-33.658s12.89,33.771,25.001,33.771 M-50,51.003
	c-12.111,0-25-33.771-25-33.771s-12.888,33.771-25,33.771 M-150,51.003c12.111,0,25-33.771,25-33.771s12.889,33.771,25,33.771"/>
</svg>
